<svg width="34" height="28" viewBox="0 0 34 28" fill="none" xmlns="http://www.w3.org/2000/svg">
<path fill-rule="evenodd" clip-rule="evenodd" d="M8 26.2308C9.10457 26.2308 10 25.4731 10 24.5385C10 23.6038 9.10457 22.8462 8 22.8462C6.89543 22.8462 6 23.6038 6 24.5385C6 25.4731 6.89543 26.2308 8 26.2308Z" stroke="black" stroke-width="2" stroke-linecap="round" stroke-linejoin="round"/>
<path fill-rule="evenodd" clip-rule="evenodd" d="M20 26.2308C21.1046 26.2308 22 25.4731 22 24.5385C22 23.6038 21.1046 22.8462 20 22.8462C18.8954 22.8462 18 23.6038 18 24.5385C18 25.4731 18.8954 26.2308 20 26.2308Z" stroke="black" stroke-width="2" stroke-linecap="round" stroke-linejoin="round"/>
<path d="M5.67 11.8462H23L21.32 18.9454C21.1313 19.7494 20.2886 20.3234 19.32 20.3077H8.75C7.73948 20.3149 6.88134 19.6832 6.75 18.8354L5.23 9.08769C5.09962 8.24628 4.25291 7.61667 3.25 7.61539H1" stroke="black" stroke-width="2" stroke-linecap="round" stroke-linejoin="round"/>
<ellipse cx="24" cy="8.46154" rx="10" ry="8.46154" fill="#F72464"/>
<path d="M27.132 7.19813C27.132 7.59013 27.048 7.93013 26.88 8.21813C26.72 8.50613 26.5 8.74213 26.22 8.92613C25.948 9.11013 25.636 9.24613 25.284 9.33413V9.37013C25.972 9.45013 26.492 9.65813 26.844 9.99413C27.204 10.3301 27.384 10.7821 27.384 11.3501C27.384 11.8461 27.26 12.2941 27.012 12.6941C26.772 13.0861 26.396 13.3981 25.884 13.6301C25.38 13.8541 24.728 13.9661 23.928 13.9661C23.456 13.9661 23.016 13.9261 22.608 13.8461C22.2 13.7661 21.816 13.6501 21.456 13.4981V11.9621C21.824 12.1461 22.208 12.2861 22.608 12.3821C23.016 12.4781 23.392 12.5261 23.736 12.5261C24.384 12.5261 24.836 12.4141 25.092 12.1901C25.356 11.9661 25.488 11.6501 25.488 11.2421C25.488 11.0021 25.428 10.8021 25.308 10.6421C25.188 10.4741 24.976 10.3501 24.672 10.2701C24.376 10.1821 23.96 10.1381 23.424 10.1381H22.776V8.74613H23.436C23.964 8.74613 24.364 8.69813 24.636 8.60213C24.916 8.49813 25.104 8.36213 25.2 8.19413C25.304 8.01813 25.356 7.81813 25.356 7.59413C25.356 7.29013 25.26 7.05413 25.068 6.88613C24.884 6.71013 24.572 6.62213 24.132 6.62213C23.86 6.62213 23.612 6.65813 23.388 6.73013C23.164 6.79413 22.96 6.87413 22.776 6.97013C22.6 7.06613 22.444 7.15813 22.308 7.24613L21.468 5.99813C21.692 5.83813 21.94 5.69413 22.212 5.56613C22.492 5.43813 22.8 5.33813 23.136 5.26613C23.472 5.19413 23.848 5.15813 24.264 5.15813C25.144 5.15813 25.84 5.33813 26.352 5.69813C26.872 6.05013 27.132 6.55013 27.132 7.19813Z" fill="white"/>
</svg>
